<svg width="46" height="57" viewBox="0 0 46 57" fill="none" xmlns="http://www.w3.org/2000/svg">
<path fill-rule="evenodd" clip-rule="evenodd" d="M44.5112 0.381162C44.5735 0.345561 44.6116 0.348253 44.6749 0.373624C44.8975 0.462687 44.9572 0.569196 45.2248 0.54248C45.2951 0.60841 45.304 0.675105 45.3055 0.770512C45.3124 1.16005 45.15 1.56407 45.0498 1.93781C44.8901 2.53529 44.7176 3.13554 44.5874 3.73643C44.5839 3.7519 44.5861 3.76811 44.5855 3.78392C44.5076 4.07073 44.0992 5.89136 44.0042 6.00883H44.0035C43.9615 6.20128 43.9199 6.8181 43.8066 6.93528C43.6104 7.30623 43.6326 7.82237 43.5181 8.22734C43.5043 8.27602 43.476 8.42041 43.4479 8.45612C43.4094 8.50427 43.3581 8.42826 43.38 8.52887C43.4035 8.63586 43.4304 8.73362 43.3781 8.8368C43.3613 8.8707 43.3463 8.88415 43.3223 8.9103C43.337 9.01478 43.3654 9.08099 43.3166 9.1764L43.2884 9.1911C43.1234 9.68887 43.2379 9.99982 42.881 10.5235C42.9163 10.5549 42.9614 10.5756 42.9659 10.6252C42.9943 10.949 42.8011 11.3589 42.7644 11.6919C42.7491 11.711 42.7331 11.7366 42.7128 11.7507L42.6818 11.8615C42.621 12.1243 42.6343 12.4147 42.5683 12.679C42.5245 12.8093 42.4956 12.9373 42.4702 13.0722L42.4706 13.0725C42.439 13.126 42.3854 13.1887 42.3857 13.2504C42.3875 13.5236 42.087 15.3407 41.9584 15.5809L41.9467 15.599L41.952 15.6894C41.9558 15.8985 41.9043 16.0941 41.8739 16.3038C41.8135 16.7197 41.7627 17.1399 41.6804 17.5521C41.5696 18.1071 41.3617 18.665 41.3726 19.2362C41.3764 19.4386 41.3113 19.6643 41.2772 19.8649C41.2295 19.9842 41.0329 21.0931 41.0516 21.1652C41.0566 21.1848 41.0609 21.2047 41.0656 21.2244L41.04 21.2647L41.006 21.2632C41.0115 21.3905 40.962 21.4849 40.94 21.5987L40.9328 21.6488L40.9385 21.7219C40.9558 22.0883 40.797 22.4592 40.8114 22.8281C40.8142 22.8978 40.8075 22.9339 40.7884 22.9993C40.7962 23.0205 40.8104 23.0404 40.8114 23.063C40.8141 23.1404 40.5372 24.7354 40.5172 24.7749C40.5091 24.7915 40.4991 24.8073 40.49 24.8235L40.4338 24.7937C40.4353 24.7856 40.435 24.7762 40.4338 24.7659V24.7937L40.49 24.8235L40.4874 24.8574C40.5084 25.1717 40.3449 25.4961 40.4135 25.8035C40.3508 26.0714 40.1832 26.646 40.2373 26.9026C40.247 26.951 40.2595 27.0026 40.2539 27.0526C40.2398 27.1783 40.1893 27.3041 40.1739 27.4344C40.152 27.6168 40.1893 27.9271 40.1042 28.0819L40.054 28.5998C40.0383 28.7724 40.0217 28.9451 39.9997 29.1169C39.9991 29.1228 39.9997 29.1288 39.9997 29.1346C39.959 29.2657 39.9804 29.4058 39.9307 29.5278C39.9497 29.6744 39.916 29.8139 39.9107 29.9608C39.9019 30.2173 39.7844 30.519 39.8273 30.7633C39.8148 30.8596 39.8249 30.9625 39.802 31.0554C39.7886 31.1758 39.7878 31.314 39.7319 31.4225C39.8151 31.7995 39.483 33.6907 39.5493 33.8739L39.5139 33.9233L39.5274 34.1178C39.5412 34.3167 39.4748 35.4224 39.4109 35.5802L39.4113 35.5806C39.3637 35.6566 39.3606 35.6591 39.3781 35.7494C39.3818 35.7685 39.3872 35.7877 39.3913 35.8067C39.4708 36.1746 39.3289 36.7615 39.3155 37.1553C39.3089 37.3571 39.3427 37.5894 39.3155 37.7855C39.3089 37.8315 39.293 37.8602 39.2717 37.9009C39.2814 38.2759 39.3383 39.1456 39.1993 39.4688C39.1871 39.8219 39.1968 40.185 39.2046 40.5381C39.206 40.5992 39.2187 40.644 39.2182 40.699L39.2125 40.7582L39.2031 40.8276C39.1858 40.9899 39.2009 41.1542 39.1921 41.3176C39.1919 41.3235 39.1942 41.3298 39.1948 41.3357L39.1857 41.3692C39.1792 41.4098 39.1739 41.4562 39.1627 41.4958L39.1631 41.4962C39.1743 41.4565 39.1792 41.4098 39.1857 41.3692C39.2796 41.7092 39.1664 42.1095 39.1895 42.4607C39.1903 42.4808 39.1924 42.5038 39.1936 42.5267L39.1929 42.5919L39.1812 42.6217C39.1307 42.7751 39.1991 43.0098 39.2038 43.172C39.2417 44.8328 39.3492 46.4913 39.5271 48.1431C39.564 48.5044 39.5851 49.1087 39.6896 49.4396C39.7075 49.4966 39.7367 49.516 39.7621 49.5667C39.7689 49.5801 39.7701 49.5957 39.7741 49.6104L39.7556 49.6341C39.7423 49.9012 39.9396 50.1997 39.8673 50.4637L39.8699 50.4905C39.8809 50.5884 39.9046 50.6517 39.9484 50.7396C39.9243 50.9078 39.912 51.076 39.7613 51.1832C39.5237 51.3528 39.1311 51.2895 38.861 51.2326C38.6738 51.1929 38.4772 51.0819 38.2907 51.1226C38.1194 51.081 37.9483 51.0521 37.7743 51.0249L37.7226 50.9439C37.5695 50.8394 37.2223 50.9195 37.0297 50.8757C36.9791 50.8641 36.933 50.8551 36.8811 50.85L36.8223 50.8448L36.797 50.7995C36.7066 50.7664 36.6165 50.7343 36.522 50.714C35.4983 50.4959 34.4701 50.3934 33.4254 50.3612C33.2078 50.3543 32.9914 50.3934 32.7751 50.3868C32.3847 50.3749 31.8047 50.1774 31.4553 50.4079C31.2559 50.412 30.8726 50.4234 30.7179 50.3058C30.3053 50.459 29.0905 50.4975 28.6031 50.5229C28.3764 50.5348 28.1344 50.5181 27.9147 50.5753C27.812 50.6019 27.7549 50.5972 27.6522 50.57C27.5931 50.6278 27.5506 50.6664 27.4749 50.7027C27.4154 50.6989 27.3619 50.6904 27.3037 50.6767C26.6459 50.6789 25.3761 50.8553 24.7437 51.0449C24.6849 51.0624 24.643 51.0488 24.5842 51.0366C24.3124 51.1333 23.8729 51.163 23.5805 51.1617C23.5718 51.1642 23.5628 51.1664 23.5541 51.1685C23.4665 51.192 23.4141 51.2384 23.3349 51.2688C23.1499 51.3404 22.8999 51.3947 22.7043 51.415C22.6214 51.3678 22.5933 51.3362 22.4957 51.3672C22.3678 51.4075 22.2917 51.5167 22.1472 51.464C22.1309 51.4581 22.1147 51.4511 22.0985 51.4448L22.0616 51.4836L22.0582 51.5364C21.731 51.5986 21.3999 51.6102 21.0741 51.683C20.9708 51.7059 20.8748 51.7288 20.775 51.7648C20.5694 51.8142 20.3577 51.8599 20.1549 51.9175C19.9769 51.9684 19.8504 51.9111 19.68 51.9276C19.5811 51.9373 19.4608 52.0102 19.3643 52.0452C19.1111 52.1375 18.8401 52.1666 18.5707 52.1613C18.2821 52.3978 17.8861 52.4052 17.5372 52.4346C17.5112 52.4368 17.4849 52.4371 17.4588 52.4384C17.1627 52.4887 16.9296 52.6209 16.6486 52.7022C16.2171 52.827 15.7394 52.8406 15.3243 53.0158C15.2569 53.0442 15.1864 53.0632 15.1161 53.0832C14.9737 53.1389 14.8811 53.0849 14.7344 53.1021C14.5263 53.235 14.3693 53.3324 14.1154 53.3233C13.8677 53.3143 13.798 53.3336 13.6183 53.5088C13.5126 53.5341 13.5034 53.4968 13.4082 53.4914C13.1985 53.4799 12.4352 53.8587 11.967 53.8484C11.8905 53.8406 11.8316 53.8392 11.7663 53.8872C11.7553 53.8953 11.7001 53.9563 11.6928 53.9641C11.615 54.0473 11.5805 54.0662 11.4729 54.0919C11.2496 54.1444 10.9845 54.1813 10.7717 54.257C10.6218 54.3104 10.4556 54.4232 10.3002 54.4477C10.2288 54.4589 10.1953 54.4415 10.1282 54.4262C10.036 54.4052 10.0035 54.4354 9.92339 54.4748L9.87473 54.494C9.61082 54.5883 9.06771 54.6548 8.94346 54.7639L8.86048 54.742C8.79839 54.7567 8.7471 54.7796 8.68773 54.8012C8.66926 54.8081 8.65006 54.8127 8.63153 54.8193C8.57108 54.8409 8.54008 54.8665 8.49348 54.9086C8.44186 54.8858 8.34582 54.8235 8.29244 54.8438C8.21782 54.8723 8.17174 54.9436 8.12308 55.0036C7.83226 55.1084 7.48776 55.0892 7.21218 55.2215C7.17707 55.3015 7.18031 55.3296 7.09299 55.359C6.92753 55.4147 6.73824 55.353 6.56984 55.3862C6.3872 55.4222 6.18338 55.579 6.01085 55.6553C5.95411 55.6802 5.88586 55.6725 5.82528 55.67C5.71502 55.645 5.67178 55.6378 5.57407 55.7009C5.55742 55.7115 5.54242 55.7248 5.52655 55.7367C5.42704 55.8083 5.37467 55.843 5.24555 55.8249C5.17899 55.8155 5.13177 55.7996 5.0645 55.8177C5.04696 55.8577 5.02904 55.898 5.01094 55.938C4.60262 56.0268 3.79795 56.1736 3.43657 55.9678C3.40643 55.9158 3.38488 55.8947 3.40979 55.8328C3.54378 55.5004 3.9478 55.7254 4.19848 55.63L4.1106 55.5931L4.10155 55.5418C4.12264 55.5103 4.1494 55.4648 4.17849 55.4386C4.29051 55.3388 4.73915 55.2214 4.89627 55.2173L4.95738 55.2234C4.97779 55.2249 4.99828 55.2255 5.01848 55.2252C5.15303 55.223 5.21104 55.1601 5.30288 55.0722C5.38384 54.9949 5.66953 55.0154 5.7951 54.9701C5.80862 54.9207 5.81992 54.8872 5.84451 54.8415L5.92108 54.9275C6.04011 54.9362 6.18045 54.8255 6.29563 54.7843C6.58054 54.6829 6.96332 54.6775 7.2069 54.4986C7.47792 54.2991 7.45689 54.4826 7.70366 54.4563C7.84901 54.441 8.04049 54.2623 8.17438 54.1948C8.40224 54.0797 8.68871 54.0445 8.93969 54.0432C8.92868 53.9982 8.93201 53.9825 8.94044 53.9385C9.18513 53.93 9.44317 53.9369 9.67105 53.8352C9.77631 53.7883 9.86683 53.7156 9.97883 53.684C10.0369 53.715 10.0611 53.7309 10.1282 53.7334L10.1569 53.6995L10.1388 53.6279C10.4925 53.692 10.4907 53.4672 10.7743 53.4149C10.9844 53.3761 11.2926 53.4692 11.477 53.3976L11.4619 53.3294L11.5117 53.2939L11.583 53.3346C11.6594 53.3174 11.6874 53.2859 11.7392 53.2306C11.7512 53.2178 11.7628 53.2043 11.775 53.1918C11.8749 53.088 11.8995 53.2183 12.0213 53.2189C12.0897 53.202 12.1565 53.1878 12.2204 53.1571C12.1964 53.0958 12.2051 53.1265 12.1937 53.0636C12.441 52.9961 12.7792 53.0237 12.9967 52.8955L12.9627 52.8209L12.994 52.784C13.0526 52.7893 13.1029 52.7994 13.1585 52.8175L13.217 52.8371C13.5188 52.7505 14.231 52.6655 14.4338 52.545L14.4473 52.5167C14.4603 52.4931 14.4722 52.4823 14.4998 52.4583L14.5895 52.4828C14.6171 52.4585 14.6565 52.4417 14.6917 52.4323C14.8584 52.3873 15.3695 52.1958 15.5046 52.1986C15.5986 52.2008 15.63 52.2672 15.7332 52.2322L15.7475 52.1391C15.9159 51.9747 16.2032 52.1177 16.4027 52.0799C16.5302 52.0558 16.5009 51.926 16.6139 51.9227C16.7197 51.9197 16.7966 51.9564 16.8979 51.9416L16.9432 51.9318C16.9607 51.9093 16.9778 51.8863 16.9967 51.8651C17.1905 51.6467 17.8326 51.6325 18.1 51.6216C18.3858 51.3795 19.0209 51.3683 19.3956 51.3148C19.4485 51.2704 19.5027 51.2285 19.5574 51.1862C19.6504 51.1919 19.7252 51.2342 19.8098 51.2711C19.8274 51.2207 19.8175 51.2465 19.8414 51.193C19.9403 51.1646 20.0377 51.1328 20.1353 51.1003C20.559 51.2081 20.5943 50.9161 20.9707 50.9567C21.1014 50.9711 21.1208 50.965 21.2302 50.9047L21.2846 50.916C21.3409 50.933 21.4017 50.9643 21.4509 50.9831C21.5043 50.9255 21.56 50.8618 21.6214 50.8124C21.6958 50.752 21.7731 50.7312 21.8677 50.7377C22.2468 50.9548 22.2166 50.6389 22.5625 50.6424C22.7622 50.6446 23.2058 50.7108 23.3674 50.6088C23.4265 50.5713 23.4859 50.5223 23.5435 50.481C23.6227 50.4707 23.6478 50.4608 23.7242 50.4886L23.8011 50.4701C23.8778 50.4488 23.9536 50.4217 24.0316 50.4121C24.3045 50.3783 24.5675 50.3951 24.8433 50.3435C24.9071 50.2831 24.9736 50.2277 25.0553 50.1923C25.2437 50.1117 25.3296 50.2152 25.5041 50.2572C25.6156 50.2834 26.1835 50.1197 26.2981 50.0597C26.3165 50.05 26.3339 50.0395 26.352 50.0295L26.429 50.0533L26.4527 50.1105C26.858 50.0749 27.2621 50.0044 27.668 49.9809C27.8163 50.0252 27.9102 49.9963 28.0463 49.9338C28.134 49.9159 28.2226 49.9064 28.3096 49.887C28.5766 49.8282 29.2652 49.951 29.4559 49.8124C29.4822 49.7655 29.4821 49.7368 29.5377 49.7212C29.6946 49.6768 29.8263 49.8247 29.9828 49.8147C30.1941 49.8012 30.4016 49.7007 30.6138 49.6925C31.0377 49.6763 31.4645 49.7687 31.8921 49.7336C32.0918 49.7173 32.3604 49.559 32.5454 49.6598L32.5914 49.748C32.7836 49.757 32.9663 49.6719 33.1557 49.6797C33.4051 49.6898 33.6718 49.7669 33.9206 49.8026C34.1423 49.8342 34.3646 49.8338 34.586 49.8591C34.7152 49.8742 34.8921 49.9322 35.0186 49.91C35.0652 49.9016 35.1066 49.8512 35.1423 49.8215C35.1864 49.8709 35.1984 49.9026 35.2219 49.9635C35.4043 49.9501 35.5499 49.8994 35.7349 49.9341C36.0194 49.9879 36.3071 49.9971 36.5922 50.0412C37.1391 50.1253 38.314 50.3834 38.8093 50.5836L38.8632 50.5512C38.8779 50.4786 38.8881 50.4355 38.8825 50.3608C38.7792 50.2601 38.4871 47.9709 38.4513 47.6388L38.4585 47.5325C38.466 47.4343 38.4788 47.336 38.4434 47.2419C38.4168 47.1715 38.3942 47.1037 38.3733 47.0315C38.4082 46.9525 38.4061 46.8615 38.3876 46.7768L38.3642 46.6946C38.2806 46.4797 38.1801 42.9035 38.1949 42.4981C38.1686 42.4352 38.1708 42.4105 38.1835 42.3642L38.199 42.3088L38.1798 42.14C38.1469 41.7384 38.1904 41.2929 38.1967 40.9003C38.2 40.8187 38.1803 40.7488 38.199 40.673L38.2092 40.6403C38.2165 40.4519 38.1864 39.4214 38.2126 39.231L38.2186 39.2046C38.2099 38.935 38.2465 38.6231 38.2759 38.3532L38.2548 38.3249L38.2718 38.3026L38.2997 38.2619C38.2913 38.2751 38.2822 38.2886 38.2718 38.3026L38.2548 38.3249C38.2906 38.1427 38.2259 37.7659 38.2876 37.602L38.3016 37.5722C38.315 37.4543 38.3065 37.3435 38.3359 37.2262C38.3569 37.1412 38.3704 37.0583 38.3823 36.9718L38.3469 36.9375C38.2911 36.6794 38.5247 33.2951 38.603 32.8691L38.638 32.8257C38.6501 32.8096 38.661 32.7924 38.6656 32.7764C38.7109 32.6165 38.6846 32.3732 38.689 32.2031C38.6987 31.8218 38.7239 31.015 38.8187 30.6834C38.8093 30.639 38.8044 30.6029 38.8153 30.5579C38.8598 30.3783 38.8358 30.1265 38.9353 29.9804C38.889 29.7349 38.9125 29.3789 38.9892 29.1403C38.9689 29.0458 38.9837 28.9872 39.0084 28.8968C39.1647 28.5761 38.9492 27.9366 39.2012 27.61C39.138 27.3635 39.2057 27.0986 39.2661 26.8581L39.2751 26.7152C39.3032 26.3827 39.3726 26.0538 39.415 25.7228C39.4557 25.4028 39.4687 25.0798 39.5059 24.7591L39.5588 24.7259C39.6169 24.0012 39.7321 22.8548 39.9144 22.1026L39.9518 21.9575C39.9671 21.7564 39.9352 21.4516 40.0514 21.2858L40.0487 21.2285C40.0534 20.85 40.3193 19.1564 40.3927 18.9972C40.4841 18.2397 40.6478 17.4754 40.7774 16.7229C40.8247 16.4493 40.8927 16.1727 40.9125 15.896L40.9359 15.8357C41.0514 15.5078 41.13 14.7973 41.1916 14.4645C41.2889 13.9393 41.4128 13.4163 41.5096 12.8928C41.513 12.8744 41.5179 12.8562 41.5201 12.8377C41.5459 12.6431 41.5943 12.4543 41.6193 12.2603L41.6287 12.177L41.6329 12.1631C41.6608 12.0474 41.6852 11.9546 41.7291 11.8559L41.7804 11.7537L41.7498 11.6633C41.8127 11.4358 41.949 10.4312 42.0248 10.32C42.0445 10.2912 42.0793 10.2762 42.1063 10.2544L42.0942 10.1926C42.0761 10.0509 42.1243 9.92309 42.1462 9.77871C42.1547 9.72314 42.1587 9.68362 42.1809 9.64151L42.21 9.59779L42.2368 9.57103C42.2411 9.52104 42.2379 9.48254 42.2322 9.43308C42.2491 9.43217 42.2658 9.43329 42.2824 9.43044C42.3919 9.41137 42.4168 9.30014 42.4816 9.2205C42.4654 9.24041 42.4513 9.26229 42.4382 9.2842C42.4119 9.32804 42.3878 9.37198 42.3503 9.40066C42.3316 9.41496 42.3097 9.42569 42.2824 9.43044C42.2658 9.43329 42.2491 9.43217 42.2322 9.43308C42.2344 9.40712 42.2351 9.38306 42.2417 9.35732C42.2974 9.13994 42.3365 8.92016 42.3944 8.70262L42.3684 8.64119C42.4275 8.49338 42.4849 8.37531 42.4684 8.21226C42.6635 7.8652 42.5969 7.19088 42.8421 6.95074C42.8284 6.88166 42.8265 6.86412 42.7814 6.81128C42.7077 6.82853 42.688 6.84781 42.652 6.91229C42.5675 7.06433 42.5062 7.23984 42.4333 7.39888C42.2304 7.83907 42.0301 8.28076 41.8332 8.72373C41.6757 9.07139 41.4337 9.43054 41.3489 9.79793C41.3357 9.85421 41.3459 9.83377 41.3149 9.87293L41.2912 9.84353L41.2097 9.84278L41.1886 9.80245L41.1882 9.80283L41.2097 9.84278L41.2912 9.84353L41.3149 9.87293C41.2126 10.1149 41.0776 10.3454 40.9574 10.5793L40.9027 10.5981C40.8072 11.0746 40.4859 11.5483 40.2652 11.9791C40.0333 12.4317 39.8134 12.8902 39.5784 13.342C39.4762 13.539 39.3346 13.7219 39.2585 13.9327L39.2302 14.0246C39.2014 14.1135 39.1549 14.1661 39.0952 14.2349L39.1103 14.2274C39.0831 14.2996 39.0549 14.3691 39.0424 14.4456L38.9481 14.5775C38.9318 14.6889 38.8794 14.7305 38.8059 14.8075L38.7659 14.8504L38.7403 14.8768C38.713 14.9382 38.6891 14.9959 38.6675 15.0596C38.5347 15.4529 37.4951 17.3553 37.2183 17.5751C37.2396 17.6358 37.2502 17.6349 37.2293 17.6995L37.2213 17.7052C37.0141 18.0485 35.7034 20.35 35.5572 20.4498L35.544 20.4574C35.4908 20.5208 35.4515 20.5685 35.4195 20.6462C35.3423 20.8542 35.1774 21.1068 35.0242 21.2926L34.9594 21.368C34.6998 21.6601 34.5733 22.11 34.2759 22.3615C33.9203 22.7562 33.6384 23.2446 33.3088 23.6649C33.2177 23.7809 33.1014 23.8418 33.0007 23.9419C32.9623 23.9802 32.7592 24.2583 32.6382 24.4296L32.5537 24.5525C32.3051 24.7031 32.0122 25.2911 31.6907 25.3987C31.6763 25.4316 31.6627 25.4591 31.6567 25.4948C31.6112 25.534 31.5555 25.5739 31.5115 25.6192L31.4723 25.6663C31.3502 25.902 30.8854 26.2237 30.6497 26.341C30.5852 26.373 30.5337 26.4105 30.478 26.4559C30.4042 26.5482 29.9631 26.8771 29.8576 26.889L29.858 26.8894C29.7556 26.93 29.6523 26.9672 29.549 27.0055C29.3714 27.0713 28.3941 27.2889 28.2134 27.267C27.9617 27.2362 27.7233 27.1235 27.4666 27.0971C27.4313 27.0934 27.3975 27.0881 27.3625 27.0812C27.3553 27.0041 27.3688 27.0389 27.3206 26.9772C27.2628 26.9951 27.2047 27.0054 27.1452 27.0164C26.9434 26.9249 26.7365 26.835 26.5572 26.7028C26.4232 26.6042 26.0495 26.0342 26.022 25.8702L26.005 25.8401C25.9397 25.8202 25.8846 25.8085 25.8311 25.7643C25.7294 25.6805 25.7828 25.4933 25.744 25.3817C25.687 25.2186 25.4831 25.1078 25.423 24.9351C25.3939 24.8517 25.4382 24.7285 25.4275 24.6332C25.1095 24.3844 25.2001 23.9931 25.11 23.6453C25.0702 23.4915 24.9328 23.379 24.8923 23.2322C24.8504 23.0791 24.878 22.8912 24.8561 22.7317C24.8392 22.607 24.7887 22.4879 24.7637 22.3645C24.6585 21.8446 24.5451 21.2943 24.5 20.7664C24.4534 20.2148 24.3942 19.6543 24.3839 19.1009C24.3792 18.8634 24.4589 18.5652 24.3612 18.3463C24.1938 17.9711 24.3624 16.2331 24.2526 15.7075C24.2992 15.7127 24.3459 15.7103 24.3926 15.7102C24.4698 15.6627 24.5444 15.6107 24.6068 15.5455C24.5652 15.5889 24.5183 15.6265 24.4687 15.6608C24.4439 15.678 24.4183 15.6943 24.3926 15.7102C24.3459 15.7103 24.2992 15.7127 24.2526 15.7075C24.2507 15.6844 24.2514 15.6629 24.2534 15.6419L24.262 15.5775C24.1947 15.1924 24.3499 14.3219 24.2455 14.0404L24.2579 14.0012C24.262 13.9874 24.2655 13.9735 24.2669 13.9624C24.2814 13.8496 24.2933 13.7976 24.3462 13.6911L24.3646 13.6541C24.3491 13.6495 24.3341 13.6419 24.3179 13.6402C24.3053 13.6388 24.2927 13.6438 24.2802 13.6454C24.2696 13.4345 24.2327 13.1474 24.3454 12.9613L24.3699 12.9255C24.3515 12.902 24.3089 12.8454 24.3028 12.8185C24.2881 12.7504 24.3479 10.5801 24.362 10.3863L24.3624 10.3852C24.3729 10.3364 24.3812 10.2949 24.3775 10.2446C24.3587 9.98121 24.4904 9.51336 24.4156 9.30455C24.4077 9.19618 24.4592 8.39616 24.4936 8.30875C24.4952 8.29726 24.4975 8.28566 24.4978 8.27407C24.5072 7.77366 24.5517 7.27573 24.511 6.77472C24.5149 6.76225 24.5168 6.74884 24.5223 6.73703C24.598 6.57239 24.6375 6.25965 24.5981 6.07781C24.584 6.01325 24.5803 5.95703 24.5796 5.89086V5.86259C24.6134 5.95441 24.647 6.08274 24.7105 6.15771C24.7176 6.16609 24.7253 6.1738 24.7331 6.18108C24.7723 6.21722 24.8194 6.24226 24.8561 6.27946C24.8708 6.29433 24.8841 6.31121 24.8942 6.33147C24.8535 6.25033 24.7668 6.22429 24.7105 6.15771C24.647 6.08274 24.6134 5.95441 24.5796 5.86259C24.5759 5.85442 24.5716 5.84626 24.5691 5.83772C24.555 5.78863 24.5695 5.7552 24.5774 5.7073C24.598 5.57902 24.6076 5.23009 24.5604 5.11103L24.5219 5.12008C24.4452 5.31226 24.4295 5.51379 24.2379 5.62363C24.2576 5.68304 24.2706 5.69447 24.3141 5.7367C24.2631 5.79031 24.2136 5.84555 24.1598 5.89614C24.0753 5.97538 24.0561 6.08054 24.0286 6.18862C24.0013 6.29582 23.9743 6.33161 23.8917 6.40572C23.8841 6.50636 23.8821 6.61044 23.8724 6.71027C23.8551 6.88408 23.673 7.14868 23.5997 7.32426C23.3443 7.93807 23.0883 8.56381 22.8563 9.18658C22.8378 9.23586 22.8128 9.26893 22.7888 9.31397C22.786 9.31948 22.7853 9.32609 22.7835 9.33207C22.7099 9.30123 22.646 9.25238 22.5858 9.19788C22.6009 9.21157 22.6158 9.22506 22.6315 9.23784C22.6783 9.27602 22.7283 9.30894 22.7835 9.33207C22.683 9.64527 22.5309 9.9638 22.4817 10.2894L22.4357 10.3358L22.4361 10.3362C22.3776 10.4493 22.2652 10.7337 22.1415 10.7673C22.1048 10.7773 22.0795 10.7794 22.0427 10.7839L22.0849 10.9238C22.0979 10.974 22.1064 11.0248 22.1008 11.0666C22.0638 11.3417 21.8804 11.6861 21.7511 11.9339C21.7169 11.9995 21.6803 12.0469 21.6255 12.0978L21.6267 12.1367C21.6251 12.2267 21.612 12.2547 21.5663 12.3304C21.536 12.3808 21.5376 12.4285 21.5241 12.4846C21.5114 12.5371 21.4815 12.5828 21.4528 12.6278L21.4015 12.6986C21.2852 12.8795 21.1981 13.1615 21.1631 13.3526L21.1099 13.402L21.0824 13.4875C21.0749 13.5154 21.0686 13.5437 21.0635 13.575C21.0479 13.6715 21.0054 13.7952 20.9515 13.8769L20.7825 14.1298C20.7903 14.2921 20.641 14.7013 20.5343 14.8278C20.5294 14.8337 20.522 14.8371 20.5159 14.8418C20.4901 14.9063 20.4654 14.9703 20.4434 15.0362C20.3499 15.3166 20.1525 15.5709 20.067 15.8489C20.0507 15.9019 20.0426 15.9159 20.001 15.951C19.9841 16.0322 19.9727 16.1208 19.9459 16.1986C19.8784 16.2699 19.8559 16.3571 19.8086 16.4421C19.656 16.7168 19.5263 16.9848 19.4054 17.2744C19.317 17.4862 19.2328 17.7539 19.1139 17.9449C18.9949 18.1021 18.9699 18.281 18.8857 18.4548C18.8026 18.6263 18.6829 18.7816 18.5926 18.9505C18.1702 19.7404 17.7702 20.5374 17.309 21.3066C17.2389 21.4236 17.1674 21.588 17.0722 21.685C17.0284 21.7295 16.9578 21.7548 16.9009 21.7784L16.8911 21.8271L16.9605 21.8968C16.8573 22.1435 16.4136 22.5344 16.3857 22.7569L16.3559 22.7697C16.3056 22.8535 16.2555 22.9169 16.1869 22.9868C16.1122 23.063 16.0853 23.1171 16.0647 23.2205C16.0154 23.3897 15.2754 24.2925 15.0984 24.4436L15.0535 24.4624C15.012 24.5268 14.9935 24.5621 14.929 24.6034C14.7573 24.7132 14.6105 24.9559 14.4421 25.0949C14.3779 25.1479 14.1727 25.2593 14.1403 25.318C14.1242 25.3471 14.134 25.3864 14.1169 25.4149C14.0578 25.5132 13.5846 25.7742 13.4584 25.8947C13.2935 26.0521 12.9352 26.1599 12.7206 26.2452L12.7225 26.3244L12.693 26.3413C12.0475 26.7066 11.1814 26.6032 10.4941 26.4412C9.85848 26.2914 8.64855 25.6685 8.3162 25.1122C8.28991 25.0683 8.22638 25.055 8.17929 25.035L8.26076 25.0018C8.02552 25.005 8.14705 24.7483 7.99409 24.6177C7.92013 24.6475 7.88258 24.6664 7.80135 24.652C7.68041 24.5494 7.65089 24.4698 7.63803 24.3139L7.63501 24.2725L7.63048 24.2246C7.62967 24.2151 7.62928 24.2055 7.6286 24.196L7.51205 24.1225C7.48616 24.1277 7.45555 24.1241 7.42907 24.124C7.36759 24.0138 7.42936 23.8628 7.34533 23.7832C7.28159 23.7229 7.1827 23.7051 7.11261 23.6325C7.11762 23.609 7.14376 23.5074 7.13562 23.4908C7.08436 23.3864 6.93755 23.3012 6.87159 23.173C6.86193 23.152 6.85595 23.1311 6.85122 23.1101L6.83877 23.0449L6.81652 22.9831C6.77589 22.9523 6.4499 22.4878 6.41595 22.423C6.30776 22.2167 6.18777 22.0042 6.09723 21.7898C6.0459 21.6682 6.04309 21.5393 5.96936 21.4268C5.94032 21.3449 5.88211 21.2786 5.83056 21.2097C5.79384 21.1037 5.66716 20.9882 5.66347 20.8754C5.6612 20.8047 5.72662 20.7611 5.6827 20.6847C5.59366 20.5296 5.41741 20.4325 5.39152 20.2418C5.42116 20.1921 5.42355 20.1858 5.42546 20.1242C5.10501 19.6861 4.90166 18.9174 4.70768 18.3908C4.61879 18.1494 4.50342 17.92 4.42253 17.675C4.37491 17.5308 4.36922 17.3664 4.3139 17.2291C4.29176 17.1742 4.24334 17.1346 4.2015 17.0949V17.0938C4.10046 16.7265 3.99447 16.3662 3.88165 16.0049L3.76623 15.6427C3.62942 15.369 3.60321 15.0665 3.52219 14.7758C3.451 14.5204 3.34569 14.2754 3.27174 14.0208C3.20414 13.788 3.16072 13.5494 3.08918 13.3175C3.04163 13.1635 3.0234 12.9297 2.93152 12.8064C2.89134 12.7452 2.8686 12.7095 2.85457 12.6361C2.7997 12.348 2.73057 11.8546 2.61733 11.5917C2.59862 11.5482 2.58871 11.5288 2.58527 11.479C2.58449 11.4678 2.58579 11.4566 2.58602 11.4454L2.5483 11.416C2.47568 11.2531 2.4415 11.0829 2.37932 10.92L2.35066 10.8506C2.30587 10.9236 2.28826 10.9834 2.26805 11.0647C2.25644 11.1116 2.26259 11.092 2.2409 11.1412C2.25404 11.3228 2.15316 11.6053 2.23298 11.7662C2.25552 11.9323 2.12056 12.0947 2.16357 12.2414L2.23939 12.246C2.26473 12.3433 2.18788 12.3773 2.16848 12.4646C2.14612 12.5654 2.25518 12.7116 2.18922 12.8095C2.18108 12.8216 2.13722 12.8603 2.1251 12.8713C2.137 13.0136 2.26221 13.2379 2.24203 13.3628C2.22297 13.4805 2.09651 13.5104 2.10209 13.6511C2.12072 13.6504 2.13963 13.6494 2.15829 13.6492C2.16887 13.6491 2.17943 13.6496 2.18998 13.65C2.19964 13.7774 2.14972 13.89 2.15263 14.0077C2.15461 14.0858 2.22493 14.183 2.23222 14.2704C2.2463 14.4387 2.2067 14.6197 2.21412 14.7928C2.21897 14.9069 2.18668 14.9693 2.1383 15.069C2.11959 15.1076 2.10283 15.1477 2.08474 15.1866C2.12588 15.2076 2.16475 15.2253 2.20733 15.2424C2.24069 15.5115 2.20353 15.8061 2.20582 16.0784C2.21527 16.7545 2.21394 17.4309 2.20167 18.107C2.19212 18.6241 2.15257 19.1683 2.20431 19.6824C2.2174 19.8122 2.19599 19.8975 2.16056 20.0205C2.14629 20.0702 2.13412 20.1207 2.12057 20.1705C2.255 20.6267 2.18472 20.8439 2.18243 21.2994C2.1822 21.3478 2.19001 21.3874 2.20167 21.434C2.22192 21.501 2.21107 21.5237 2.19827 21.5919C2.16215 21.7841 2.19748 21.9703 2.17187 22.1625L2.18055 22.3054C2.19653 22.6414 2.18142 22.9936 2.14886 23.3234C2.13687 23.4449 2.16896 23.5229 2.21864 23.6329C2.08776 24.1825 2.23989 24.9062 2.14509 25.2589C2.129 25.3187 2.07603 25.3802 2.03948 25.4296L2.05117 25.4695L2.11378 25.4469C2.11353 25.4561 2.11316 25.4656 2.11303 25.4748C2.11179 25.5609 2.11657 25.6017 2.16659 25.6761C2.17761 25.8302 2.08224 25.9516 2.1036 26.1092C2.15701 26.1119 2.13211 26.1118 2.17904 26.1099C2.14348 26.1743 2.08325 26.2008 2.02175 26.2362L2.01911 26.2716C2.08365 26.3257 2.11065 26.3327 2.12284 26.4175C2.16451 26.709 2.17761 27.1997 2.10473 27.4826L2.05645 27.5271C2.02018 27.5756 2.03313 27.5464 2.02666 27.6187L2.01383 27.6055L2.01459 27.6225C2.0329 27.6215 2.05134 27.6198 2.06965 27.6198C2.08918 27.6201 2.10863 27.6219 2.12812 27.6228C2.15733 27.7567 2.11027 27.8822 2.12284 28.0145L2.13227 28.0714C2.11727 28.4959 2.1152 28.9203 2.09983 29.3442C2.093 29.5322 2.05809 29.7282 2.06739 29.9156C2.08161 30.2021 2.19277 30.5614 2.10322 30.8341C2.0815 30.9004 2.01254 31.0538 2.01308 31.1161C2.01433 31.2587 2.11846 31.3751 2.10209 31.5427C2.0752 31.8177 2.04757 32.1024 2.04287 32.3783C2.03899 32.6061 2.06133 32.8219 2.03797 33.0477L2.03948 33.0967C2.06405 33.1655 2.07389 33.169 2.05796 33.2437C2.02366 33.4048 2.00508 33.5234 2.04023 33.687C2.1021 33.8224 2.04237 33.9252 2.00402 34.065C2.06117 34.2136 2.04902 34.4015 2.03722 34.5592C2.09958 34.9073 1.97128 35.0603 2.00553 35.3152C1.97652 35.3428 1.96548 35.3465 1.95839 35.3703L1.95197 35.4027L2.01685 35.431C2.04457 35.5216 2.06379 35.582 2.01383 35.6718C2.00201 35.693 1.98875 35.7134 1.97611 35.734C1.94792 35.78 1.92666 35.8277 1.90445 35.8768C1.92307 35.9222 2.02642 35.9882 2.02967 36.0057C2.03984 36.0608 1.96881 36.1667 1.97913 36.2217C1.99494 36.3056 2.05071 36.2615 2.02062 36.3713C1.93499 36.4245 1.88094 36.4417 1.85202 36.5489C1.84451 36.5767 1.84561 36.617 1.84523 36.6461L1.95537 36.6499C2.20272 37.0997 1.90256 37.5553 1.95574 37.7399C1.96236 37.7628 2.05798 37.8105 2.06136 37.8311C2.08298 37.9636 1.96427 38.3349 1.97234 38.5273C1.97572 38.608 1.9691 38.6829 1.93613 38.7564L1.95009 38.7806C2.07447 38.988 1.94248 39.2879 1.96706 39.5235C1.98653 39.6028 1.99567 40.4911 1.9961 40.6421L1.91048 40.6979C1.93238 40.8202 1.99397 40.9653 1.99459 41.0858C1.99526 41.2212 1.8665 41.3111 1.8788 41.4559L1.95801 41.4502C1.9985 41.6419 1.86798 41.5632 1.97272 41.8437C1.989 41.8872 1.96686 44.0993 1.96367 44.3532C1.96298 44.4092 1.964 44.388 1.95348 44.4493L1.98102 44.5119C1.98725 44.5304 1.9894 44.5495 1.98328 44.5771C1.94081 44.7682 2.0215 45.257 1.91765 45.3792C1.91413 45.3598 1.91151 45.3447 1.9086 45.3321C1.89991 45.2944 1.88913 45.2789 1.84825 45.2371C1.90297 45.2931 1.90356 45.3016 1.91765 45.3792L1.8539 45.4534C1.85577 45.4615 1.85779 45.4694 1.85956 45.4775C1.86253 45.4909 1.86518 45.5045 1.86824 45.5179C1.87052 45.5279 1.87347 45.5377 1.87578 45.5476C1.93379 45.7957 2.00274 46.5214 1.8837 46.7379L1.78677 46.7624C1.78423 46.829 1.77423 46.8178 1.81996 46.8763L1.90105 46.8748C2.00842 47.2098 1.93113 48.1218 1.92934 48.5275C1.92825 48.7703 1.91686 49.0236 1.93839 49.2651C1.95536 49.4553 2.00866 49.5996 1.99158 49.797C1.927 49.8523 1.84411 49.8942 1.82939 49.979C1.83916 49.9818 1.84907 49.9845 1.85881 49.9873C1.91303 50.0036 1.96623 50.0233 2.01798 50.0461C2.04692 50.1779 2.00697 50.5985 2.01195 50.6069C2.08762 50.7329 2.30429 50.7722 2.21827 50.9529C2.13543 51.0064 2.06458 51.0197 1.96932 50.9959C1.83909 50.9637 1.71069 50.8677 1.61288 50.7788C1.58783 50.6998 1.58572 50.6846 1.60345 50.6039L1.62873 50.5753L1.64608 50.5218L1.61666 50.4652L1.56574 50.4603L1.50388 50.5749L1.47446 50.5613C1.38006 50.302 1.38104 50.0317 1.30548 49.7706C1.30178 49.7577 1.29742 49.7449 1.29341 49.7321C1.27019 49.6637 1.26702 49.607 1.26361 49.5354C1.2077 49.1835 1.27979 48.8124 1.14631 48.4702C1.24933 47.9324 0.999582 46.8043 1.02297 46.2118C1.0281 46.0826 1.08816 45.9324 1.12594 45.8088C1.10463 45.7932 1.07392 45.7721 1.05691 45.7527C0.91948 45.5956 1.02674 45.0756 1.0505 44.8722C0.998233 44.8388 0.993785 44.832 0.966013 44.7799C1.01654 44.4314 0.899426 43.4532 1.02108 43.236L1.02221 43.2149C1.01858 43.0032 1.04671 42.8013 1.01014 42.5908L0.995434 42.5538C0.933518 42.3491 1.02986 41.859 1.02523 41.653C0.881253 41.4688 1.01063 41.4679 1.05239 41.3002C1.07202 41.2206 0.990252 40.8566 0.987136 40.7311C0.972108 40.1189 1.05692 39.4752 1.00373 38.8699C0.993344 38.7514 1.00343 38.6989 1.06295 38.5948L1.01014 38.5529C0.974773 38.4403 0.972624 38.3686 1.02561 38.2585C1.0334 38.2426 1.0417 38.2266 1.04975 38.2103L1.01052 38.1549L1.02259 38.003C1.02542 37.9522 1.02615 37.9014 1.02184 37.8511C0.990311 37.4835 0.987497 37.0509 1.09312 36.6959C1.09871 36.6772 1.10467 36.6584 1.11047 36.6397C1.04754 36.6101 1.07788 36.6265 1.01882 36.59C1.0186 36.2749 0.969687 35.4068 1.07841 35.1656C1.08166 35.0676 1.05029 34.9638 1.02938 34.8686L1.029 34.8678C1.00891 34.7625 1.03791 34.6374 1.0539 34.532L1.03692 34.4566C1.00364 34.2732 1.00993 34.0402 1.04258 33.8724L1.06069 33.7846C1.05542 33.6526 1.03324 33.4309 1.09878 33.318C1.03498 32.9998 1.09148 32.6363 1.08973 32.3097C1.08809 32.0129 1.05333 31.7152 1.06069 31.4183C1.0795 30.6572 1.12361 29.895 1.13801 29.1335C1.14544 28.7409 1.09184 28.3517 1.11538 27.9617L1.15385 27.9281C1.15845 27.6961 1.0701 27.5093 1.14216 27.2712C1.20083 27.0031 1.05302 26.6366 1.14518 26.4107C1.16702 26.3572 1.18883 26.3143 1.19421 26.255C1.20734 26.1101 1.17168 25.9478 1.16818 25.8005C1.15867 25.3984 1.15959 24.9944 1.15574 24.5921C1.14591 23.5718 1.18055 22.5524 1.19308 21.5327C1.19868 21.0756 1.13034 20.571 1.23155 20.1234L1.23419 20.1046L1.23457 20.1042C1.26675 19.8904 1.1505 19.6706 1.16479 19.4525C1.17086 19.3603 1.22705 19.3001 1.24287 19.2139C1.27373 19.045 1.19881 18.8184 1.19534 18.6407C1.17981 17.8405 1.19526 17.0333 1.19987 16.2326C1.20109 16.0198 1.29764 15.6507 1.28285 15.4893C1.28069 15.4661 1.22429 15.3911 1.20967 15.3668C1.24757 15.068 1.15806 13.8304 1.23457 13.6914C1.26008 13.6452 1.24335 13.6806 1.26814 13.6251L1.31302 13.5252C1.2731 13.497 1.25751 13.4805 1.22891 13.4427C1.22447 13.0953 1.13998 11.6819 1.21986 11.488C1.23472 11.452 1.26544 11.4247 1.28813 11.393L1.25607 11.3184C1.11617 10.9488 1.27063 10.6274 1.23683 10.2506C1.23176 10.1942 1.22837 10.1405 1.22665 10.0836L1.21156 10.0414C1.18388 9.94193 1.2038 9.83658 1.23532 9.73838L1.2308 9.67694C1.22582 9.52966 1.25634 9.36228 1.26889 9.2205L1.23268 9.1519C1.24356 9.10159 1.2475 9.07536 1.23796 9.02451C1.21081 8.87929 1.28622 8.02255 1.31981 7.85796C1.34746 7.72263 1.39021 7.58849 1.47295 7.47653C1.52565 7.40657 1.58047 7.33801 1.63702 7.27111C1.8358 7.35015 2.26697 7.46636 2.41025 7.60995C2.45904 7.6589 2.49803 7.75033 2.52529 7.81311C2.69795 8.21079 3.00893 8.85529 2.88965 9.28118L2.96471 9.27289C2.99311 9.31636 3.00854 9.3505 3.02204 9.40066C3.16827 9.8843 3.26587 10.3748 3.39319 10.8627C3.46842 11.151 3.56984 11.4321 3.64742 11.7198C3.70953 11.9501 3.74184 12.1768 3.82884 12.4009L3.77113 12.4043C3.71011 12.4075 3.65768 12.4005 3.59763 12.3884C3.58783 12.4057 3.58116 12.4182 3.57688 12.428L3.59763 12.3884C3.62763 12.3945 3.65578 12.3996 3.684 12.4024C3.69821 12.4038 3.71247 12.4047 3.727 12.405C3.74142 12.4054 3.75589 12.4051 3.77113 12.4043L3.82884 12.4009C3.85028 12.4902 3.83388 12.5304 3.80508 12.6142L3.83563 12.6911L3.89409 12.7088C3.9096 12.7156 3.92245 12.7263 3.93596 12.7503C4.00007 12.864 4.01968 13.0196 4.04648 13.1472L4.00235 13.218L4.05553 13.3319C4.10345 13.4419 4.13688 13.545 4.16265 13.6748C4.16421 13.6827 4.16719 13.6902 4.16944 13.6978C4.22951 13.9039 4.31987 14.102 4.38255 14.3107C4.4855 14.6537 4.56012 15.0076 4.6677 15.348C4.76306 15.6497 4.92021 15.9479 4.94191 16.2654L4.98378 16.3211L5.0049 16.3811C5.05948 16.5199 5.1434 16.6499 5.16521 16.7949L5.19953 16.9065C5.22859 17.0156 5.24457 17.1196 5.27119 17.2352C5.31857 17.289 5.95374 18.9788 5.9505 19.0737L5.94635 19.102L5.98106 19.1367C6.05393 19.2218 6.07082 19.3361 6.08101 19.4499C6.08185 19.4593 6.08177 19.4687 6.08214 19.4782C6.0951 19.5283 6.10359 19.5493 6.13721 19.5893C6.29494 19.7771 6.40135 20.0714 6.50723 20.2953C6.49149 20.3525 6.44548 20.4476 6.47328 20.5011C6.57102 20.6889 6.75219 20.7251 6.75541 20.9526L6.75353 21.0009C6.83539 21.1888 6.95393 21.3476 7.04132 21.5316L7.05641 21.5561C7.16899 21.662 7.17331 21.7685 7.19823 21.9141L7.1409 21.9793L7.14127 21.9797L7.19823 21.9141L7.26235 21.991L7.3095 22.025C7.35001 22.0572 7.37355 22.088 7.40191 22.1471C7.37905 22.2481 7.34822 22.3157 7.3872 22.4132C7.46221 22.4753 7.54377 22.514 7.56636 22.6107L7.53543 22.6544C7.64541 22.7485 7.80446 22.839 7.87527 22.9653C7.87667 23.0883 7.856 23.1894 7.95033 23.2793C8.07867 23.4016 8.14352 23.4049 8.16608 23.5955C8.16965 23.6258 8.1633 23.6585 8.17551 23.6864C8.24157 23.8371 8.4954 24.0124 8.61456 24.1311C8.65922 24.1756 8.7991 24.2936 8.80088 24.3509C8.80273 24.4115 8.78701 24.4642 8.77297 24.5227L8.82276 24.5834C8.83929 24.5767 8.85502 24.5666 8.87255 24.5631C8.88588 24.5604 8.8997 24.5646 8.91329 24.5653C8.94977 24.6373 8.99877 24.8004 9.07472 24.8265C9.18867 24.8656 9.28516 24.8402 9.38778 24.9215C9.39717 25.0064 9.37599 25.0203 9.33121 25.0945C9.45014 25.1669 9.63599 25.2052 9.72725 25.3014L9.69293 25.3493C9.83931 25.3564 9.95726 25.4469 10.0569 25.5577C10.0918 25.5966 10.1193 25.6351 10.1463 25.6795L10.2466 25.7209L10.2806 25.7228C10.6842 25.8478 10.9729 25.9756 11.4114 25.8966C12.2347 25.7482 13.4431 25.0204 13.9272 24.3396C14.1839 24.2031 14.2956 23.9058 14.5164 23.7146L14.5575 23.6698C14.8149 23.372 15.795 22.0046 15.8591 21.8048C15.8832 21.7593 15.8709 21.7771 15.9029 21.7389C16.192 21.3933 16.4158 20.9033 16.6467 20.5128C16.7808 20.286 16.948 20.0615 17.0684 19.8294C17.2704 19.4401 17.4266 19.0008 17.6553 18.6275C17.6744 18.6042 17.6927 18.5801 17.713 18.5577C17.9429 18.3044 18.1221 17.532 18.378 17.234C18.3904 17.2474 18.4 17.2594 18.4085 17.2698L18.378 17.234C18.4169 16.9408 18.804 16.3661 18.92 16.049C18.9414 15.9904 18.9636 15.9403 18.9958 15.8862L19.0316 15.7935L19.0373 15.7822C19.0999 15.5857 19.1545 15.4808 19.2911 15.3227C19.2065 15.0127 20.199 13.5286 20.1643 13.1325C20.2433 13.0272 20.302 12.9403 20.3461 12.8159L20.351 12.7857C20.4707 12.6895 20.5633 12.2408 20.6019 12.0779L20.6411 12.0014C20.7995 11.6998 20.8981 11.3664 21.0711 11.0749C21.1258 10.8294 21.2357 10.5814 21.3706 10.3693L21.3962 10.3294L21.3954 10.2728C21.3952 10.2486 21.3957 10.2243 21.3947 10.2001C21.3904 10.0963 21.3919 10.0143 21.4686 9.93211C21.8331 9.54219 21.6558 9.46291 21.8413 9.06973C21.8624 9.02504 21.8794 8.98213 21.8956 8.93555L21.899 8.89937C21.9358 8.75234 22.1612 8.19718 22.2743 8.11841C22.2977 8.08029 22.3072 8.05266 22.3195 8.00873C22.4896 7.40148 22.7511 6.83361 22.9555 6.23988L22.9559 6.2395C23.0834 6.04685 23.1177 5.82499 23.2387 5.62778L23.261 5.59574C23.2785 5.5674 23.2832 5.54622 23.2874 5.49925C23.2893 5.47855 23.2892 5.4575 23.2927 5.43706C23.3243 5.25567 23.472 5.02293 23.5503 4.85435C23.8117 4.29135 24.0303 3.62272 24.5427 3.23439C24.8354 3.01243 24.8838 3.31604 25.1537 3.33766C25.1729 3.33947 25.2528 3.48855 25.3053 3.53101C25.3788 3.53333 25.4177 3.53798 25.4815 3.57587C25.5397 3.69719 25.5924 4.01149 25.5505 4.13709C25.5352 4.18288 25.5288 4.20982 25.5241 4.25695L25.5188 4.3116C25.519 4.31196 25.519 4.31237 25.5192 4.31273C25.5572 4.32596 25.5806 4.32744 25.6071 4.35834C25.5996 4.44662 25.5922 4.53119 25.5746 4.61803C25.5731 4.6258 25.5667 5.81344 25.572 5.86146C25.577 5.90685 25.573 5.92585 25.5505 5.96511C25.5508 5.98193 25.5514 5.9988 25.552 6.01562C25.5561 6.11444 25.5507 6.04238 25.5645 6.1204C25.6008 6.32609 25.5643 6.8908 25.4917 7.08416C25.4801 7.11512 25.4715 7.14725 25.4615 7.17877C25.4271 7.28682 25.4768 7.38361 25.509 7.49123C25.5538 7.63902 25.5138 8.05513 25.4324 8.18814C25.4278 8.19594 25.4215 8.20272 25.4159 8.21L25.4219 8.25711L25.4747 8.39167L25.4498 8.42597L25.4374 8.45838C25.3862 8.61912 25.4763 8.76633 25.4102 8.94385L25.4419 9.09122L25.4792 9.12778C25.4698 9.14424 25.4593 9.16023 25.4506 9.17715C25.3385 9.3957 25.4077 9.85631 25.3955 10.1119C25.3698 10.6441 25.3137 11.1744 25.2974 11.7089C25.2852 12.1078 25.3077 12.5097 25.2476 12.9059L25.2876 12.9418C25.2926 12.9491 25.2915 12.9579 25.2929 12.9877C25.297 13.0804 25.2492 13.1811 25.2182 13.267C25.2721 13.3523 25.2622 13.4354 25.2672 13.5339C25.2773 13.5988 25.2786 13.5658 25.2638 13.6274C25.237 13.7409 25.2475 14.1082 25.2635 14.2323L25.2748 14.3212C25.2538 14.3425 25.2328 14.368 25.2084 14.3849L25.2484 14.4543C25.256 14.4731 25.2568 14.4932 25.2473 14.5308C25.2294 14.603 25.2192 14.66 25.2333 14.7332L25.2239 14.91C25.207 14.9771 25.216 15.0095 25.2325 15.0736C25.2823 15.2645 25.2558 15.9559 25.2627 16.2039C25.2881 17.1181 25.3628 18.051 25.3359 18.9644C25.3612 18.9976 25.3945 19.026 25.4121 19.0639C25.4406 19.1257 25.4058 19.6253 25.4136 19.748C25.4458 20.2592 25.5244 20.7868 25.5848 21.2975C25.6904 22.1887 26.0731 23.9913 26.4075 24.7892C26.5264 25.074 26.6809 25.3189 26.8371 25.5811C26.8818 25.6562 26.8934 25.8425 26.9401 25.8921C27.0018 25.9576 27.1577 25.9697 27.2278 26.0458C27.3185 26.1448 27.2936 26.2367 27.3904 26.3331L27.4398 26.3745C27.5453 26.3684 27.6232 26.4579 27.7246 26.4876L27.7404 26.5155C27.756 26.52 27.7714 26.5269 27.788 26.529C27.8847 26.5418 28.2042 26.6392 28.2677 26.6169C28.4302 26.5598 28.5151 26.4269 28.7079 26.4684C28.7758 26.4829 28.8313 26.4897 28.901 26.4917C28.9809 26.4409 28.9873 26.3867 29.0236 26.301C29.0984 26.2309 29.1779 26.2306 29.2756 26.2234C29.2953 26.2219 29.3151 26.2219 29.3348 26.22C29.4237 26.2105 30.5388 25.3466 30.6278 25.2302C30.9189 24.9224 31.3177 24.4638 31.6383 24.2141L31.6598 24.1911C31.8379 23.9262 32.0645 23.7054 32.267 23.458C32.6257 23.0194 32.9786 22.5614 33.2907 22.089C33.3339 22.0234 33.3964 21.9969 33.4261 21.9209L33.8237 21.3352C33.9554 21.1395 34.0861 20.9432 34.2163 20.7465C34.3036 20.6167 34.4289 20.4835 34.4966 20.3458C34.5216 20.2949 34.5479 20.2537 34.5807 20.2075C34.6507 20.1494 34.6566 20.1038 34.6867 20.0194C34.6954 19.9973 34.7034 19.9741 34.7168 19.9542C34.8968 19.6874 35.0918 19.43 35.2596 19.1533C35.4188 18.8911 35.5568 18.6038 35.7288 18.3478L35.8046 18.24L35.8092 18.2325C35.879 18.0437 36.054 17.8942 36.1056 17.7127C36.1203 17.661 36.1345 17.6401 36.1682 17.5985C36.4484 17.3373 36.7041 16.5794 36.9449 16.2254L36.946 16.2066C37.0343 16.0446 37.1496 15.8971 37.2376 15.7335C37.4893 15.2658 37.6917 14.751 38.0342 14.3405L38.0617 14.3081C38.0589 14.2732 38.058 14.2715 38.0583 14.2331C38.0584 14.1157 38.67 12.9537 38.764 12.8652C38.7875 12.8432 38.8018 12.7137 38.8481 12.6297C39.1023 12.1674 39.2996 11.6751 39.5535 11.217L39.6142 11.1412L39.6723 11.0632C39.6704 10.8335 39.9266 10.3855 40.0819 10.2204C40.1129 10.1877 40.1051 10.1626 40.1098 10.1187C40.1519 9.86297 40.4123 9.43486 40.53 9.18695C40.5318 9.17889 40.5317 9.16978 40.5357 9.16245C40.5601 9.1155 40.5897 9.08582 40.6103 9.03317C40.8454 8.43995 41.1546 7.85601 41.4232 7.27601C41.7669 6.53427 42.082 5.78549 42.4091 5.03715C42.5206 4.78267 42.8521 4.12785 42.9142 3.91245C42.9298 3.85861 42.9471 3.81836 42.9734 3.76922L43.0232 3.6456C43.0682 3.52291 43.1047 3.40329 43.188 3.28941C43.2511 3.04097 43.6291 2.10744 43.7806 1.87713L43.784 1.83529C43.8045 1.73228 43.904 1.59445 43.9352 1.49531C43.959 1.51486 43.9814 1.53579 44.0061 1.55411C44.0381 1.57787 44.0659 1.58616 44.0993 1.58502C44.0882 1.58539 44.0778 1.58471 44.0676 1.58276C44.0472 1.57885 44.0274 1.56988 44.0061 1.55411C43.9814 1.53579 43.959 1.51486 43.9352 1.49531C43.985 1.38761 44.0327 1.27708 44.0861 1.17042L44.1415 1.06526C44.192 0.85236 44.305 0.498447 44.5112 0.381162ZM5.36323 55.5185C5.37198 55.5393 5.3827 55.5592 5.39604 55.581C5.36934 55.5373 5.35436 55.5008 5.3406 55.4514L5.36323 55.5185ZM9.25087 54.1925C9.22298 54.2552 9.17532 54.2709 9.11131 54.3157C9.12966 54.3029 9.14705 54.2925 9.1626 54.2826C9.18588 54.2678 9.20595 54.2543 9.22258 54.2362C9.23363 54.2242 9.24331 54.2101 9.25124 54.1921L9.25087 54.1925ZM9.31159 53.9419C9.30915 53.9424 9.30679 53.9432 9.30443 53.9437C9.31849 53.9403 9.33387 53.9373 9.35044 53.9351L9.31159 53.9419ZM11.9704 53.7018C11.9804 53.7322 11.983 53.7536 11.9813 53.7749L11.9805 53.7417C11.9789 53.7299 11.9754 53.717 11.9704 53.7018ZM11.5049 53.7199C11.5001 53.7008 11.4975 53.6859 11.4966 53.6731L11.5049 53.7199ZM17.9955 51.8093C18.0021 51.8132 18.0083 51.8174 18.014 51.8221L18.0144 51.8225C18.0029 51.813 17.9895 51.805 17.9748 51.7984L17.9955 51.8093ZM18.648 51.5451L18.6933 51.5424L18.722 51.5439L18.7397 51.5466C18.7325 51.5462 18.7266 51.5452 18.722 51.5439C18.7088 51.5415 18.6831 51.542 18.648 51.5451ZM20.4136 51.1976C20.3709 51.2049 20.3254 51.2134 20.2778 51.2228C20.1826 51.2416 20.079 51.264 19.972 51.288C19.7578 51.336 19.5298 51.3906 19.3273 51.4373C19.2262 51.4606 19.1314 51.482 19.0479 51.4995C19.4654 51.412 20.1656 51.2285 20.5332 51.1791L20.4136 51.1976ZM1.57931 45.0524C1.5617 45.0576 1.54532 45.0618 1.52877 45.0644C1.56189 45.0592 1.59459 45.0479 1.6374 45.0343L1.57931 45.0524ZM38.342 42.4445C38.3929 42.5176 38.4053 42.5607 38.4759 42.5862L38.5098 42.596C38.4844 42.5901 38.465 42.5826 38.4491 42.5738C38.4411 42.5694 38.434 42.5647 38.4276 42.5595C38.3953 42.5333 38.3784 42.4968 38.342 42.4445ZM38.8221 42.555C38.9271 42.5903 39.014 42.5188 39.111 42.5267C39.0556 42.5222 39.0036 42.5435 38.9496 42.5561C38.936 42.5593 38.9224 42.5621 38.9085 42.5636C38.8809 42.5666 38.852 42.565 38.8221 42.555ZM38.3902 40.3896C38.3117 40.3955 38.2963 40.4161 38.2307 40.4601C38.2801 40.4269 38.3009 40.4071 38.3416 40.3968C38.355 40.3933 38.3707 40.3911 38.3902 40.3896ZM38.7972 40.2136C38.7996 40.2286 38.8013 40.2437 38.8029 40.2584C38.7995 40.2269 38.7947 40.1945 38.7874 40.1623L38.7972 40.2136ZM1.78752 38.7218L1.69888 38.7802L1.69926 38.7806L1.78752 38.7218ZM38.5603 37.9137C38.4977 37.9224 38.5213 37.9214 38.4608 37.9223L38.5098 37.9212C38.5193 37.9203 38.529 37.918 38.5603 37.9137ZM38.7218 37.4101C38.6902 37.4521 38.6719 37.5055 38.6456 37.5763C38.6653 37.5231 38.6809 37.4797 38.7007 37.4437C38.7138 37.4197 38.7288 37.399 38.7486 37.3807L38.7218 37.4101ZM1.39223 35.5625C1.43379 35.5815 1.46543 35.5871 1.50991 35.5949C1.4875 35.591 1.46873 35.5876 1.44994 35.5828C1.43128 35.5781 1.41299 35.572 1.39223 35.5625ZM1.57026 35.1253L1.59403 35.0996C1.58665 35.1069 1.57882 35.1151 1.57026 35.1253ZM38.967 33.5992C38.9888 33.602 39.015 33.6051 39.0356 33.6116C39.0988 33.6316 39.1129 33.6491 39.1827 33.6482L39.1393 33.6455C39.1272 33.6437 39.1169 33.641 39.1069 33.6376C39.0868 33.6308 39.0676 33.6212 39.036 33.6112C39.0257 33.608 39.0139 33.6056 39.002 33.6037C38.9901 33.6018 38.978 33.6006 38.967 33.5992ZM38.7078 33.4887C38.6747 33.5246 38.6411 33.56 38.6067 33.5946C38.6097 33.6012 38.6116 33.6089 38.6147 33.6157L38.615 33.6154C38.612 33.6086 38.6097 33.6012 38.6067 33.5946C38.6411 33.56 38.6747 33.5246 38.7078 33.4887ZM1.33679 31.7236C1.30529 31.6841 1.2683 31.6461 1.23117 31.6166C1.25597 31.6363 1.28056 31.6599 1.30359 31.6852C1.3151 31.6978 1.32627 31.7104 1.33679 31.7236ZM39.1325 31.3938C39.196 31.4133 39.2597 31.4413 39.323 31.456C39.2914 31.4487 39.2597 31.438 39.228 31.4266L39.1325 31.3938ZM39.7854 29.4124C39.7949 29.4193 39.8043 29.4263 39.8137 29.4332C39.7795 29.4082 39.7453 29.3835 39.7134 29.3559L39.7854 29.4124ZM39.3803 27.9632C39.315 27.9785 39.2839 27.9993 39.2348 28.0465C39.2469 28.0348 39.2583 28.0247 39.2691 28.016C39.2908 27.9983 39.3112 27.9861 39.337 27.9764C39.3498 27.9716 39.364 27.967 39.3803 27.9632ZM39.2389 27.8038C39.2395 27.8039 39.2372 27.8007 39.2585 27.8075C39.2364 27.8004 39.2398 27.8041 39.2389 27.8038ZM39.4509 27.4287C39.5138 27.4582 39.5626 27.494 39.6131 27.5184L39.5369 27.4755C39.5105 27.4598 39.4824 27.4435 39.4509 27.4287ZM28.3217 27.0435C28.3404 27.0666 28.3546 27.0926 28.3654 27.1298L28.3662 27.1302C28.3554 27.0927 28.3405 27.0667 28.3217 27.0435ZM9.52055 25.8834C9.55161 25.8928 9.58081 25.9068 9.6073 25.9252L9.58015 25.9083C9.552 25.8928 9.52141 25.8819 9.48925 25.8755L9.52055 25.8834ZM32.1671 24.3524C32.1908 24.4045 32.2085 24.4323 32.2501 24.4737C32.2396 24.4633 32.2308 24.4536 32.2229 24.4443C32.1994 24.4166 32.1849 24.3915 32.1671 24.3524ZM40.0947 21.7585C40.0779 21.778 40.0619 21.7982 40.0465 21.8188L40.0947 21.7585C40.1115 21.739 40.1293 21.72 40.1475 21.7019L40.0947 21.7585ZM25.3615 21.1388C25.3476 21.169 25.3365 21.1946 25.3299 21.2195L25.3397 21.1893C25.3455 21.1735 25.3531 21.1571 25.3615 21.1388ZM1.4522 19.9715C1.43431 19.9884 1.41673 20.0061 1.39676 20.0239C1.43083 19.9935 1.45703 19.9623 1.49294 19.9391L1.4522 19.9715ZM35.183 19.8178C35.1568 19.8279 35.122 19.8426 35.0952 19.8479C35.0555 19.8558 35.0311 19.859 35.0092 19.8547C35.0201 19.8568 35.0317 19.8575 35.0454 19.8562C35.0592 19.8549 35.0752 19.8519 35.0952 19.8479C35.1221 19.8426 35.1571 19.8282 35.1834 19.8181L35.183 19.8178ZM35.3509 19.7352C35.426 19.7478 35.5066 19.746 35.5862 19.7469C35.626 19.7473 35.6655 19.7484 35.7039 19.7525C35.5885 19.7402 35.4636 19.7541 35.3509 19.7352ZM35.4901 19.5143C35.5256 19.517 35.5519 19.5078 35.5844 19.5125C35.6004 19.5148 35.6181 19.5203 35.6391 19.5324C35.5755 19.4955 35.5433 19.5183 35.4901 19.5143ZM40.5756 19.0609L40.616 19.0081H40.6152L40.5756 19.0609ZM18.1494 18.3127L18.149 18.3124C18.094 18.3374 18.0923 18.3844 18.0694 18.4386L18.0698 18.439C18.0928 18.3847 18.0943 18.3378 18.1494 18.3127ZM5.09015 16.9781C5.08328 16.9847 5.07555 16.9909 5.06676 16.9966L5.09015 16.9781C5.09707 16.9714 5.10292 16.9645 5.10825 16.957L5.09015 16.9781ZM19.7449 15.7034C19.6783 15.7103 19.6035 15.7486 19.545 15.7701C19.5839 15.7558 19.6301 15.7343 19.6762 15.7192C19.6994 15.7116 19.7226 15.7057 19.7449 15.7034ZM19.3334 15.6378C19.3536 15.6606 19.3693 15.6784 19.3832 15.6928L19.3334 15.6378ZM3.58405 12.5181L3.59159 12.5618V12.6063C3.58937 12.6627 3.57841 12.6902 3.55387 12.7393C3.55999 12.7271 3.56559 12.7161 3.57009 12.7058C3.5746 12.6955 3.57837 12.6857 3.58141 12.6757C3.5875 12.6556 3.59048 12.6345 3.59159 12.6063C3.59218 12.5915 3.59166 12.5766 3.59159 12.5618L3.58443 12.5185L3.58405 12.5181ZM21.4977 12.1001L21.5335 12.027H21.5327L21.4977 12.1001ZM20.9028 12.0096C20.8931 12.0154 20.8835 12.0213 20.8738 12.027C20.8994 12.0119 20.9249 11.9962 20.9511 11.9821L20.9028 12.0096ZM2.29219 10.2747C2.29274 10.416 2.40743 10.5393 2.41817 10.678C2.41512 10.6383 2.40334 10.5999 2.38838 10.5619C2.35847 10.4861 2.31491 10.4122 2.29861 10.3339C2.29453 10.3144 2.29226 10.2949 2.29219 10.2747ZM21.7421 10.5834L21.7462 10.542C21.7436 10.5549 21.7419 10.5687 21.7421 10.5834ZM21.9771 9.59741C21.9909 9.59641 22.0042 9.59846 22.0193 9.60646C22.0244 9.60912 22.0296 9.61247 22.0352 9.61663C22.013 9.59987 21.9956 9.59605 21.9771 9.59741ZM25.0764 8.66154C25.0638 8.69765 25.064 8.72984 25.0753 8.77687L25.0756 8.7765C25.0644 8.72944 25.0637 8.69771 25.0764 8.66154ZM41.1486 8.48703C41.1379 8.5141 41.1303 8.54203 41.1282 8.57259L41.1286 8.57296C41.1293 8.56263 41.1305 8.55261 41.1324 8.54281C41.1434 8.48475 41.173 8.43477 41.2014 8.37848L41.1486 8.48703ZM41.7453 8.33853C41.7294 8.34053 41.714 8.34297 41.6989 8.34606C41.7292 8.33985 41.7607 8.33602 41.7947 8.33438L41.7453 8.33853ZM23.6125 6.08384C23.6639 6.10269 23.7181 6.12164 23.7589 6.14603C23.7723 6.15408 23.7844 6.16259 23.7943 6.17204C23.7443 6.12427 23.6422 6.097 23.5627 6.06462L23.6125 6.08384ZM23.6216 5.7759C23.6414 5.78591 23.6619 5.79458 23.6831 5.80342C23.6366 5.784 23.5943 5.76292 23.5514 5.73557L23.6216 5.7759ZM25.1895 4.4209C25.1982 4.43411 25.2054 4.44924 25.2137 4.46463C25.2013 4.4416 25.1917 4.41895 25.1752 4.40281L25.1895 4.4209ZM24.5966 4.39377C24.5987 4.39716 24.6018 4.39974 24.6045 4.40281C24.597 4.39423 24.5914 4.38491 24.5879 4.37417L24.5966 4.39377ZM44.2336 3.75189C44.2295 3.76929 44.2269 3.78598 44.2253 3.80277C44.2221 3.83636 44.2231 3.87042 44.2241 3.9117C44.2225 3.84961 44.2217 3.8039 44.234 3.75151L44.2336 3.75189ZM24.4186 3.6505C24.4053 3.66527 24.3898 3.6784 24.3714 3.68932L24.3718 3.68969C24.3994 3.67327 24.4201 3.65151 24.4371 3.62713L24.4186 3.6505ZM24.4872 3.4153C24.5559 3.43466 24.5965 3.45701 24.6257 3.48465C24.6062 3.46621 24.5817 3.45007 24.5472 3.43566L24.4872 3.4153Z" fill="black"/>
</svg>
