<svg width="119" height="83" viewBox="0 0 119 83" fill="none" xmlns="http://www.w3.org/2000/svg">
<path d="M22.9969 10.2831C23.9382 10.6561 24.7226 11.1534 25.3345 11.7594C25.9463 12.3656 26.4169 13.0649 26.7151 13.8263C27.0131 14.6034 27.17 15.3648 27.17 16.1263H23.4205C23.4205 15.2871 23.091 14.5878 22.4164 14.0129C21.7418 13.4533 20.8162 13.1736 19.6239 13.1736C19.1375 13.1736 18.6512 13.2203 18.1962 13.3134C17.7256 13.4067 17.3177 13.5466 16.9568 13.733C16.596 13.9196 16.3136 14.1527 16.1096 14.4324C15.9057 14.7122 15.7959 15.0385 15.7959 15.4115C15.7959 16.0796 16.141 16.5925 16.8313 16.9189C17.5216 17.2452 18.6198 17.556 20.1416 17.8668C21.3182 18.0999 22.3693 18.3486 23.3107 18.6439C24.252 18.9391 25.0521 19.3121 25.711 19.7628C26.3699 20.2134 26.8877 20.7728 27.2484 21.4566C27.6092 22.1249 27.7819 22.9641 27.7819 23.9587C27.7819 24.8911 27.5936 25.7458 27.217 26.5073C26.8406 27.2689 26.2915 27.9215 25.5854 28.4499C24.8795 28.9783 24.0167 29.3823 23.0126 29.6776C22.0085 29.9573 20.8789 30.0972 19.6396 30.0972C18.6669 30.0972 17.7099 29.9573 16.7372 29.6776C15.7645 29.4134 14.9016 28.9783 14.1329 28.4188C13.3642 27.8594 12.7523 27.1445 12.2817 26.2897C11.811 25.435 11.5757 24.4094 11.5757 23.2283H15.3095C15.3095 23.8189 15.4507 24.3161 15.7018 24.7357C15.9684 25.1553 16.3136 25.5128 16.7215 25.7925C17.1294 26.0722 17.6001 26.2897 18.1178 26.4296C18.6355 26.5694 19.1375 26.6472 19.6239 26.6472C20.1573 26.6472 20.6907 26.6006 21.2084 26.5073C21.7418 26.414 22.2125 26.2587 22.636 26.0412C23.0596 25.8235 23.3891 25.5593 23.6401 25.233C23.8911 24.9066 24.0167 24.5027 24.0167 24.0364C24.0167 23.7411 23.9538 23.4614 23.797 23.1972C23.6558 22.933 23.4048 22.6999 23.0439 22.4824C22.6831 22.2648 22.1968 22.0628 21.6163 21.8762C21.0201 21.6898 20.2671 21.5033 19.3572 21.3479C18.4472 21.1769 17.553 20.9749 16.6744 20.7107C15.7959 20.4621 15.0115 20.1047 14.3369 19.6695C13.6466 19.2344 13.0975 18.6749 12.6739 17.9911C12.2503 17.3073 12.0306 16.4526 12.0306 15.396C12.0306 14.5567 12.2032 13.7797 12.5641 13.0959C12.9249 12.4121 13.4269 11.8061 14.1015 11.3088C14.7604 10.8115 15.5606 10.423 16.4862 10.1432C17.4118 9.8635 18.4629 9.72363 19.6082 9.72363C20.926 9.72363 22.0556 9.92566 22.9969 10.2831Z" fill="black"/>
<path d="M33.8014 15.2803H30.0972V30.0974H33.8014V15.2803Z" fill="black"/>
<path d="M51.3969 29.3784C51.3969 30.62 51.2214 31.7488 50.8705 32.7486C50.5195 33.7484 50.0091 34.603 49.3393 35.3126C48.6694 36.006 47.8719 36.5543 46.9148 36.9412C45.9579 37.3121 44.8892 37.5056 43.693 37.5056C42.8157 37.5056 41.9704 37.3766 41.1569 37.1348C40.3434 36.8768 39.6258 36.5219 38.9718 36.0704C38.3338 35.6189 37.7755 35.0545 37.3449 34.4257C36.8983 33.7967 36.6112 33.0711 36.4836 32.2649H40.6625C40.7742 32.5551 40.9655 32.8131 41.1888 33.0227C41.4281 33.2324 41.6992 33.4098 41.9704 33.5549C42.2575 33.6839 42.5446 33.7967 42.8317 33.8452C43.1347 33.9096 43.4059 33.9257 43.6771 33.9257C45.0327 33.9257 46.0057 33.5227 46.6277 32.7002C47.2657 31.8778 47.5689 30.7974 47.5689 29.4589V28.7333C46.9947 29.2977 46.3247 29.7331 45.591 30.0395C44.8573 30.3458 44.0439 30.491 43.1826 30.491C42.2256 30.491 41.3005 30.2975 40.4551 29.8943C39.5938 29.4912 38.8442 28.943 38.2062 28.2496C37.5682 27.54 37.0578 26.7176 36.675 25.7661C36.3082 24.8148 36.1167 23.7828 36.1167 22.6701C36.1167 21.5574 36.3082 20.5254 36.675 19.5578C37.0578 18.5903 37.5682 17.7518 38.2062 17.0584C38.8601 16.365 39.6097 15.8167 40.4551 15.4135C41.3164 15.0104 42.2256 14.8169 43.1826 14.8169C44.1077 14.8169 44.9371 14.9781 45.7027 15.3168C46.4682 15.6554 47.1382 16.1231 47.7443 16.752V15.1394H51.3808V29.3784H51.3969ZM47.2977 20.9769C47.0903 20.4608 46.8192 19.9932 46.4682 19.6063C46.1173 19.2192 45.7186 18.9129 45.256 18.687C44.7935 18.4614 44.299 18.3484 43.7727 18.3484C43.2464 18.3484 42.7519 18.4614 42.2893 18.687C41.8268 18.9129 41.4121 19.2031 41.0772 19.59C40.7263 19.961 40.4551 20.4286 40.2478 20.9608C40.0564 21.493 39.9447 22.0574 39.9447 22.654C39.9447 23.2506 40.0404 23.815 40.2478 24.331C40.4551 24.847 40.7263 25.2824 41.0772 25.6695C41.4281 26.0564 41.8268 26.3467 42.2893 26.5564C42.7519 26.7659 43.2464 26.8788 43.7727 26.8788C44.299 26.8788 44.7935 26.7659 45.256 26.5402C45.7186 26.3144 46.1173 26.0242 46.4682 25.6372C46.8192 25.2663 47.0903 24.8148 47.2977 24.2987C47.5051 23.7828 47.6007 23.2345 47.6007 22.654C47.6007 22.0574 47.489 21.493 47.2977 20.9769Z" fill="black"/>
<path d="M67.6033 30.097H63.7459V21.3587C63.7459 21.1502 63.7137 20.8616 63.6492 20.5249C63.5845 20.1881 63.4717 19.8515 63.294 19.5468C63.1165 19.2262 62.826 18.9536 62.4709 18.7291C62.0998 18.5047 61.5833 18.3924 60.9538 18.3924C60.0823 18.3924 59.3722 18.665 58.8395 19.2262C58.3069 19.7874 58.0325 20.4929 58.0325 21.3427V30.081H54.1753V15.2016H57.855V16.6448C58.3393 16.0836 58.9041 15.6345 59.5497 15.3139C60.1953 14.9932 60.9215 14.8169 61.7447 14.8169C62.6162 14.8169 63.4232 14.9772 64.1494 15.2979C64.8758 15.6185 65.489 16.0514 66.0055 16.6286C66.5058 17.1898 66.9093 17.8793 67.1837 18.697C67.4742 19.5148 67.6033 20.3966 67.6033 21.3907V30.097Z" fill="black"/>
<path d="M74.0858 15.2803H69.9185V30.0974H74.0858V15.2803Z" fill="black"/>
<path d="M84.1059 15.4629V18.8025H81.312V30.0973H77.3373V18.8025H75.4746V15.4629H77.3373C77.3539 14.5177 77.5203 13.6356 77.8196 12.8322C78.119 12.0289 78.5679 11.3357 79.1666 10.7844C79.7487 10.2173 80.4804 9.80771 81.3287 9.53991C82.1768 9.27212 83.158 9.19335 84.2723 9.31937V12.8479C83.3077 12.7692 82.576 12.9268 82.077 13.3363C81.5781 13.7302 81.3287 14.4548 81.3287 15.4787H84.1059V15.4629Z" fill="black"/>
<path d="M89.8288 30.0975H86.1245V8.79785H89.8288V30.0975Z" fill="black"/>
<path d="M99.9334 32.8223C99.5668 33.7775 99.1526 34.5415 98.6905 35.1306C98.2285 35.7036 97.7186 36.1493 97.145 36.4518C96.5714 36.7383 95.95 36.9293 95.2649 36.993C94.5797 37.0566 93.8627 37.0566 93.082 37.0089V33.5546C93.56 33.5865 93.9742 33.5865 94.3408 33.5227C94.6913 33.475 95.0099 33.3636 95.2808 33.2044C95.5517 33.0452 95.7906 32.8382 95.9818 32.5517C96.189 32.2811 96.3642 31.9309 96.5236 31.5011L96.9537 30.3709L91.2178 15.2803H95.2488L98.8817 25.9934L102.435 15.2803H106.498L99.9334 32.8223Z" fill="black"/>
<path d="M74.0858 2.31517C74.0858 3.59591 73.1548 4.63035 72.0021 4.63035C70.8494 4.63035 69.9185 3.59591 69.9185 2.31517C69.9185 1.03444 70.8494 0 72.0021 0C73.1548 0 74.0858 1.03444 74.0858 2.31517Z" fill="black"/>
<path d="M112.019 58.3425C107.43 58.3425 104.646 55.5145 104.646 50.9605V50.9472C104.646 46.4198 107.458 43.5254 111.851 43.5254C116.244 43.5254 119 46.3534 119 50.6551V51.8501H108.675C108.717 54.1204 110.018 55.4481 112.103 55.4481C113.782 55.4481 114.803 54.5718 115.097 53.7752L115.125 53.6956H118.874L118.832 53.8416C118.371 55.9394 116.3 58.3425 112.019 58.3425ZM111.921 46.4198C110.242 46.4198 108.983 47.4819 108.717 49.4071H115.083C114.831 47.4421 113.614 46.4198 111.921 46.4198Z" fill="black"/>
<path d="M94.3591 58.3425C91.1741 58.3425 89.3657 56.2974 89.3657 52.8978V43.5254H93.3064V52.0716C93.3064 53.9678 94.1971 55.0649 95.965 55.0649C97.7329 55.0649 98.8531 53.7646 98.8531 51.8685V43.5254H102.794V58.0445H98.8531V55.6473H98.7721C98.0298 57.3132 96.5453 58.3425 94.3591 58.3425Z" fill="black"/>
<path d="M82.6445 62.9729V55.83H82.5635C81.8073 57.5012 80.1869 58.5389 78.0939 58.5389C74.475 58.5389 72.2334 55.7087 72.2334 51.0187V51.0052C72.2334 46.3286 74.502 43.5254 78.1614 43.5254C80.2004 43.5254 81.7803 44.617 82.5635 46.3286H82.6445V43.8084H86.5875V62.9729H82.6445ZM79.4577 55.2774C81.3887 55.2774 82.658 53.6332 82.658 51.0321V51.0187C82.658 48.4176 81.3752 46.7869 79.4577 46.7869C77.4997 46.7869 76.2439 48.4041 76.2439 51.0052V51.0187C76.2439 53.6467 77.4862 55.2774 79.4577 55.2774Z" fill="black"/>
<path d="M56.4902 58.3425V43.8234H60.5668V46.2071H60.6506C61.4184 44.5412 62.9541 43.5254 65.2158 43.5254C68.5105 43.5254 70.3813 45.5705 70.3813 48.9701V58.3425H66.3047V49.7827C66.3047 47.8866 65.3833 46.803 63.5544 46.803C61.7256 46.803 60.5668 48.1033 60.5668 49.9994V58.3425H56.4902Z" fill="black"/>
<path d="M45.7102 58.3425C42.7461 58.3425 40.7471 56.5421 40.7471 54.0214V53.9947C40.7471 51.3941 42.8288 49.8737 46.496 49.647L50.1494 49.4336V48.5533C50.1494 47.2864 49.2947 46.4995 47.723 46.4995C46.2203 46.4995 45.3104 47.1797 45.1174 48.0999L45.0898 48.2199H41.4088L41.4226 48.0599C41.6432 45.4192 43.9869 43.5254 47.8885 43.5254C51.7073 43.5254 54.1751 45.4325 54.1751 48.3133V58.1158H50.1494V55.9819H50.0667C49.2257 57.4489 47.6541 58.3425 45.7102 58.3425ZM44.7314 53.8214C44.7314 54.875 45.6275 55.5018 47.0199 55.5018C48.8259 55.5018 50.1494 54.3815 50.1494 52.8878V51.8609L47.1026 52.0476C45.5448 52.1409 44.7314 52.7811 44.7314 53.7947V53.8214Z" fill="black"/>
<path d="M37.42 58.3422C34.1483 58.3422 32.6088 57.0856 32.6088 53.9441V46.4044H30.5605V43.3994H32.6088V39.8208H36.6639V43.3994H39.3582V46.4044H36.6639V53.507C36.6639 54.8729 37.2825 55.3373 38.4922 55.3373C38.8496 55.3373 39.1108 55.2963 39.3582 55.269V58.192C38.9046 58.2602 38.2585 58.3422 37.42 58.3422Z" fill="black"/>
<path d="M23.7718 42.0856H21.1182L23.5823 37.5059H27.0889L23.7718 42.0856ZM22.8782 58.3424C18.4374 58.3424 15.7432 55.4901 15.7432 50.897V50.8836C15.7432 46.3172 18.4645 43.398 22.7158 43.398C26.967 43.398 29.6342 46.2503 29.6342 50.589V51.7942H19.6424C19.683 54.0841 20.9422 55.4232 22.9595 55.4232C24.5842 55.4232 25.5725 54.5394 25.8568 53.7359L25.8839 53.6555H29.5124L29.4717 53.8028C29.025 55.9186 27.0212 58.3424 22.8782 58.3424ZM22.7835 46.3172C21.1588 46.3172 19.9403 47.3885 19.683 49.3302H25.8433C25.5996 47.3483 24.4217 46.3172 22.7835 46.3172Z" fill="black"/>
<path d="M0 58.3426V38.4321H7.65903C11.6734 38.4321 14.3541 41.1365 14.3541 45.2345V45.2621C14.3541 49.3601 11.6734 52.0645 7.65903 52.0645H3.98798V58.3426H0ZM6.68185 41.7298H3.98798V48.8082H6.68185C8.96635 48.8082 10.3133 47.5388 10.3133 45.2759V45.2483C10.3133 42.9855 8.96635 41.7298 6.68185 41.7298Z" fill="black"/>
<path d="M76.7343 80.5682C74.8133 80.5682 73.6226 79.1456 73.6226 76.8846V76.8777C73.6226 74.6373 74.833 73.1597 76.6619 73.1597C78.4908 73.1597 79.642 74.5891 79.642 76.7265V77.0839H74.5041C74.5304 78.7882 75.4054 79.7573 76.754 79.7573C77.7605 79.7573 78.4579 79.2281 78.6815 78.4515L78.6947 78.3896H79.5565L79.5433 78.4584C79.3065 79.6817 78.2144 80.5682 76.7343 80.5682ZM76.6553 73.9706C75.4909 73.9706 74.6225 74.8434 74.5173 76.3623H78.7671C78.6684 74.8022 77.8263 73.9706 76.6553 73.9706Z" fill="black"/>
<path d="M69.1049 80.5682C67.5835 80.5682 66.6772 79.5319 66.6772 77.8233V73.1597H67.557V77.6692C67.557 79.0207 68.192 79.7419 69.3562 79.7419C70.5601 79.7419 71.3539 78.8316 71.3539 77.4732V73.1597H72.2337V80.4422H71.3539V79.2028H71.3341C70.9835 79.987 70.2162 80.5682 69.1049 80.5682Z" fill="black"/>
<path d="M61.935 82.8834C60.338 82.8834 59.3552 82.0799 59.116 81.0789L59.1031 81.0245H59.963L59.9889 81.0857C60.2152 81.6577 60.9005 82.0799 61.9285 82.0799C63.2152 82.0799 63.9652 81.3173 63.9652 80.112V78.8659H63.9458C63.5902 79.792 62.7367 80.4525 61.657 80.4525C59.963 80.4525 58.8057 79.0089 58.8057 76.8027V76.7959C58.8057 74.6032 59.9759 73.1597 61.6699 73.1597C62.7432 73.1597 63.5773 73.8474 63.9458 74.7871H63.9652V73.289H64.8251V80.1869C64.8251 81.8211 63.713 82.8834 61.935 82.8834ZM61.8251 79.649C63.0923 79.649 63.9652 78.505 63.9652 76.8027V76.7959C63.9652 75.1003 63.0859 73.9632 61.8251 73.9632C60.5255 73.9632 59.685 75.0867 59.685 76.7959V76.8027C59.685 78.5322 60.5255 79.649 61.8251 79.649Z" fill="black"/>
<path d="M54.1722 80.5682C52.7982 80.5682 51.8599 79.7229 51.8599 78.4584V78.4446C51.8599 77.2282 52.758 76.4928 54.3599 76.3829L56.5315 76.2454V75.6269C56.5315 74.596 55.8948 73.9706 54.809 73.9706C53.7969 73.9706 53.1333 74.4723 52.9859 75.2833L52.9725 75.352H52.1146L52.1213 75.2695C52.2553 74.0393 53.2473 73.1597 54.8224 73.1597C56.4176 73.1597 57.4163 74.0806 57.4163 75.5444V80.4377H56.5315V79.1319H56.5047C56.1227 79.9841 55.2044 80.5682 54.1722 80.5682ZM52.7647 78.4584C52.7647 79.2418 53.4082 79.771 54.3532 79.771C55.5731 79.771 56.5315 78.8913 56.5315 77.7505V76.9602L54.4672 77.1045C53.3746 77.1732 52.7647 77.6612 52.7647 78.4446V78.4584Z" fill="black"/>
<path d="M47.8022 80.5682C45.7335 80.5682 44.4512 79.1456 44.4512 76.8846V76.8777C44.4512 74.6373 45.7548 73.1597 47.7243 73.1597C49.6938 73.1597 50.9337 74.5891 50.9337 76.7265V77.0839H45.4005C45.4289 78.7882 46.3711 79.7573 47.8235 79.7573C48.9074 79.7573 49.6584 79.2281 49.8993 78.4515L49.9135 78.3896H50.8416L50.8274 78.4584C50.5723 79.6817 49.3963 80.5682 47.8022 80.5682ZM47.7172 73.9706C46.4632 73.9706 45.528 74.8434 45.4147 76.3623H49.9914C49.8851 74.8022 48.9783 73.9706 47.7172 73.9706Z" fill="black"/>
<path d="M38.4321 80.5681V70.3813H39.3118V79.6927H43.9885V80.5681H38.4321Z" fill="black"/>
</svg>
